<mxfile host="app.diagrams.net" modified="2024-01-19T09:05:23.672Z" agent="Mozilla/5.0 (Windows NT 10.0; Win64; x64) AppleWebKit/537.36 (KHTML, like Gecko) Chrome/120.0.0.0 Safari/537.36" etag="KTKlCUbRFrNc2Vn6Keun" version="22.1.17" type="github">
  <diagram name="Page-1" id="2YBvvXClWsGukQMizWep">
    <mxGraphModel dx="1354" dy="668" grid="1" gridSize="10" guides="1" tooltips="1" connect="1" arrows="1" fold="1" page="1" pageScale="1" pageWidth="850" pageHeight="1100" math="0" shadow="0">
      <root>
        <mxCell id="0" />
        <mxCell id="1" parent="0" />
        <mxCell id="U5JM5fZHrac_0It8cKO1-1" value="UserController" style="shape=umlLifeline;perimeter=lifelinePerimeter;whiteSpace=wrap;html=1;container=0;dropTarget=0;collapsible=0;recursiveResize=0;outlineConnect=0;portConstraint=eastwest;newEdgeStyle={&quot;edgeStyle&quot;:&quot;elbowEdgeStyle&quot;,&quot;elbow&quot;:&quot;vertical&quot;,&quot;curved&quot;:0,&quot;rounded&quot;:0};" parent="1" vertex="1">
          <mxGeometry x="40" y="40" width="100" height="770" as="geometry" />
        </mxCell>
        <mxCell id="U5JM5fZHrac_0It8cKO1-3" value="GetById(Guid)" style="html=1;verticalAlign=bottom;startArrow=oval;endArrow=block;startSize=8;edgeStyle=elbowEdgeStyle;elbow=vertical;curved=0;rounded=0;entryX=-0.26;entryY=0.004;entryDx=0;entryDy=0;entryPerimeter=0;" parent="U5JM5fZHrac_0It8cKO1-1" edge="1">
          <mxGeometry relative="1" as="geometry">
            <mxPoint x="-18" y="71" as="sourcePoint" />
            <mxPoint x="44.39999999999998" y="72.39999999999998" as="targetPoint" />
          </mxGeometry>
        </mxCell>
        <mxCell id="U5JM5fZHrac_0It8cKO1-4" value="GetUserByIdQueryHandler" style="shape=umlLifeline;perimeter=lifelinePerimeter;whiteSpace=wrap;html=1;container=0;dropTarget=0;collapsible=0;recursiveResize=0;outlineConnect=0;portConstraint=eastwest;newEdgeStyle={&quot;edgeStyle&quot;:&quot;elbowEdgeStyle&quot;,&quot;elbow&quot;:&quot;vertical&quot;,&quot;curved&quot;:0,&quot;rounded&quot;:0};" parent="1" vertex="1">
          <mxGeometry x="220" y="40" width="160" height="770" as="geometry" />
        </mxCell>
        <mxCell id="U5JM5fZHrac_0It8cKO1-5" value="" style="html=1;points=[];perimeter=orthogonalPerimeter;outlineConnect=0;targetShapes=umlLifeline;portConstraint=eastwest;newEdgeStyle={&quot;edgeStyle&quot;:&quot;elbowEdgeStyle&quot;,&quot;elbow&quot;:&quot;vertical&quot;,&quot;curved&quot;:0,&quot;rounded&quot;:0};" parent="U5JM5fZHrac_0It8cKO1-4" vertex="1">
          <mxGeometry x="75" y="80" width="10" height="670" as="geometry" />
        </mxCell>
        <mxCell id="U5JM5fZHrac_0It8cKO1-6" value="new GetUserByIdQuery(Id)" style="html=1;verticalAlign=bottom;endArrow=block;edgeStyle=elbowEdgeStyle;elbow=vertical;curved=0;rounded=0;" parent="1" source="U5JM5fZHrac_0It8cKO1-23" target="U5JM5fZHrac_0It8cKO1-5" edge="1">
          <mxGeometry relative="1" as="geometry">
            <mxPoint x="95" y="130" as="sourcePoint" />
            <Array as="points">
              <mxPoint x="180" y="130" />
            </Array>
            <mxPoint x="290" y="130" as="targetPoint" />
          </mxGeometry>
        </mxCell>
        <mxCell id="U5JM5fZHrac_0It8cKO1-8" value="FindEntityRecord&lt;br style=&quot;border-color: var(--border-color);&quot;&gt;ById&amp;lt;User&amp;gt;" style="shape=umlLifeline;perimeter=lifelinePerimeter;whiteSpace=wrap;html=1;container=0;dropTarget=0;collapsible=0;recursiveResize=0;outlineConnect=0;portConstraint=eastwest;newEdgeStyle={&quot;edgeStyle&quot;:&quot;elbowEdgeStyle&quot;,&quot;elbow&quot;:&quot;vertical&quot;,&quot;curved&quot;:0,&quot;rounded&quot;:0};" parent="1" vertex="1">
          <mxGeometry x="400" y="40" width="121" height="770" as="geometry" />
        </mxCell>
        <mxCell id="U5JM5fZHrac_0It8cKO1-9" value="" style="html=1;points=[];perimeter=orthogonalPerimeter;outlineConnect=0;targetShapes=umlLifeline;portConstraint=eastwest;newEdgeStyle={&quot;edgeStyle&quot;:&quot;elbowEdgeStyle&quot;,&quot;elbow&quot;:&quot;vertical&quot;,&quot;curved&quot;:0,&quot;rounded&quot;:0};" parent="U5JM5fZHrac_0It8cKO1-8" vertex="1">
          <mxGeometry x="56" y="100" width="10" height="420" as="geometry" />
        </mxCell>
        <mxCell id="U5JM5fZHrac_0It8cKO1-23" value="" style="rounded=0;whiteSpace=wrap;html=1;" parent="1" vertex="1">
          <mxGeometry x="85" y="110" width="10" height="680" as="geometry" />
        </mxCell>
        <mxCell id="U5JM5fZHrac_0It8cKO1-13" value="Result&amp;lt;User?&amp;gt;" style="text;html=1;strokeColor=none;fillColor=none;align=center;verticalAlign=middle;whiteSpace=wrap;rounded=0;" parent="1" vertex="1">
          <mxGeometry x="342.5" y="174" width="85" height="30" as="geometry" />
        </mxCell>
        <mxCell id="U5JM5fZHrac_0It8cKO1-19" value="Find(&lt;br style=&quot;border-color: var(--border-color);&quot;&gt;IRepository: userRepository,&lt;br style=&quot;border-color: var(--border-color);&quot;&gt;Id: id)" style="text;html=1;align=center;verticalAlign=middle;resizable=0;points=[];autosize=1;strokeColor=none;fillColor=none;" parent="1" vertex="1">
          <mxGeometry x="296" y="98" width="170" height="60" as="geometry" />
        </mxCell>
        <mxCell id="U5JM5fZHrac_0It8cKO1-10" value="" style="endArrow=classic;html=1;rounded=0;" parent="1" edge="1">
          <mxGeometry width="50" height="50" relative="1" as="geometry">
            <mxPoint x="304.4999999999999" y="150" as="sourcePoint" />
            <mxPoint x="455.5" y="150" as="targetPoint" />
          </mxGeometry>
        </mxCell>
        <mxCell id="U5JM5fZHrac_0It8cKO1-17" value="" style="html=1;verticalAlign=bottom;endArrow=open;dashed=1;endSize=8;edgeStyle=elbowEdgeStyle;elbow=vertical;curved=0;rounded=0;" parent="1" edge="1">
          <mxGeometry x="0.0051" relative="1" as="geometry">
            <mxPoint x="304.4999999999999" y="197.00310344827588" as="targetPoint" />
            <Array as="points" />
            <mxPoint x="455.5" y="197.00310344827588" as="sourcePoint" />
            <mxPoint as="offset" />
          </mxGeometry>
        </mxCell>
        <mxCell id="U5JM5fZHrac_0It8cKO1-24" value="" style="html=1;verticalAlign=bottom;endArrow=block;edgeStyle=elbowEdgeStyle;elbow=vertical;curved=0;rounded=0;" parent="1" target="U5JM5fZHrac_0It8cKO1-23" edge="1">
          <mxGeometry relative="1" as="geometry">
            <mxPoint x="95" y="130" as="sourcePoint" />
            <Array as="points" />
            <mxPoint x="295" y="130" as="targetPoint" />
          </mxGeometry>
        </mxCell>
        <mxCell id="U5JM5fZHrac_0It8cKO1-22" value="&lt;font style=&quot;font-size: 11px;&quot;&gt;condition&lt;/font&gt;" style="shape=umlFrame;whiteSpace=wrap;html=1;pointerEvents=0;direction=east;" parent="1" vertex="1">
          <mxGeometry x="60" y="560" width="340" height="210" as="geometry" />
        </mxCell>
        <mxCell id="U5JM5fZHrac_0It8cKO1-25" value="[ Result.IsFailed ]" style="text;html=1;align=center;verticalAlign=middle;resizable=0;points=[];autosize=1;strokeColor=none;fillColor=default;fontSize=10;" parent="1" vertex="1">
          <mxGeometry x="250" y="590" width="100" height="30" as="geometry" />
        </mxCell>
        <mxCell id="U5JM5fZHrac_0It8cKO1-26" value="" style="html=1;verticalAlign=bottom;endArrow=open;dashed=1;endSize=8;edgeStyle=elbowEdgeStyle;elbow=vertical;curved=0;rounded=0;strokeColor=default;" parent="1" edge="1">
          <mxGeometry x="0.0051" relative="1" as="geometry">
            <mxPoint x="96" y="647" as="targetPoint" />
            <Array as="points" />
            <mxPoint x="294" y="648.0031034482759" as="sourcePoint" />
            <mxPoint as="offset" />
          </mxGeometry>
        </mxCell>
        <mxCell id="U5JM5fZHrac_0It8cKO1-27" value="&lt;font style=&quot;font-size: 9px;&quot;&gt;CustomGenericResult(&lt;br style=&quot;font-size: 9px;&quot;&gt;data: null,&lt;br style=&quot;font-size: 9px;&quot;&gt;&amp;nbsp;statusCode: NotFound)&lt;/font&gt;" style="text;html=1;align=center;verticalAlign=middle;resizable=0;points=[];autosize=1;strokeColor=none;fillColor=default;fontSize=9;" parent="1" vertex="1">
          <mxGeometry x="140" y="620" width="120" height="50" as="geometry" />
        </mxCell>
        <mxCell id="U5JM5fZHrac_0It8cKO1-28" value="" style="endArrow=none;dashed=1;html=1;rounded=0;" parent="1" edge="1">
          <mxGeometry width="50" height="50" relative="1" as="geometry">
            <mxPoint x="30" y="670" as="sourcePoint" />
            <mxPoint x="333" y="670" as="targetPoint" />
          </mxGeometry>
        </mxCell>
        <mxCell id="U5JM5fZHrac_0It8cKO1-29" value="[else]" style="text;html=1;align=center;verticalAlign=middle;resizable=0;points=[];autosize=1;strokeColor=none;fillColor=default;fontSize=10;imageWidth=24;arcSize=12;strokeOpacity=100;resizeHeight=0;" parent="1" vertex="1">
          <mxGeometry x="275" y="680" width="50" height="30" as="geometry" />
        </mxCell>
        <mxCell id="U5JM5fZHrac_0It8cKO1-30" value="" style="html=1;verticalAlign=bottom;endArrow=open;dashed=1;endSize=8;edgeStyle=elbowEdgeStyle;elbow=vertical;curved=0;rounded=0;entryX=1.143;entryY=0.533;entryDx=0;entryDy=0;entryPerimeter=0;" parent="1" edge="1">
          <mxGeometry x="0.0051" relative="1" as="geometry">
            <mxPoint x="95" y="737" as="targetPoint" />
            <Array as="points" />
            <mxPoint x="293" y="738.0031034482759" as="sourcePoint" />
            <mxPoint as="offset" />
          </mxGeometry>
        </mxCell>
        <mxCell id="U5JM5fZHrac_0It8cKO1-31" value="&lt;font style=&quot;font-size: 9px;&quot;&gt;CustomGenericResult(&lt;br style=&quot;font-size: 9px;&quot;&gt;data: user,&lt;br style=&quot;font-size: 9px;&quot;&gt;&amp;nbsp;statusCode: Ok)&lt;/font&gt;" style="text;html=1;align=center;verticalAlign=middle;resizable=0;points=[];autosize=1;strokeColor=none;fillColor=default;fontSize=9;" parent="1" vertex="1">
          <mxGeometry x="144" y="710" width="110" height="50" as="geometry" />
        </mxCell>
        <mxCell id="cx8QfjB5eR3xIAXllwFt-1" value="UserRepository" style="shape=umlLifeline;perimeter=lifelinePerimeter;whiteSpace=wrap;html=1;container=0;dropTarget=0;collapsible=0;recursiveResize=0;outlineConnect=0;portConstraint=eastwest;newEdgeStyle={&quot;edgeStyle&quot;:&quot;elbowEdgeStyle&quot;,&quot;elbow&quot;:&quot;vertical&quot;,&quot;curved&quot;:0,&quot;rounded&quot;:0};" vertex="1" parent="1">
          <mxGeometry x="564" y="40" width="121" height="770" as="geometry" />
        </mxCell>
        <mxCell id="cx8QfjB5eR3xIAXllwFt-2" value="" style="html=1;points=[];perimeter=orthogonalPerimeter;outlineConnect=0;targetShapes=umlLifeline;portConstraint=eastwest;newEdgeStyle={&quot;edgeStyle&quot;:&quot;elbowEdgeStyle&quot;,&quot;elbow&quot;:&quot;vertical&quot;,&quot;curved&quot;:0,&quot;rounded&quot;:0};" vertex="1" parent="cx8QfjB5eR3xIAXllwFt-1">
          <mxGeometry x="55.5" y="190" width="10" height="75" as="geometry" />
        </mxCell>
        <mxCell id="cx8QfjB5eR3xIAXllwFt-4" value="" style="endArrow=classic;html=1;rounded=0;" edge="1" parent="1" source="U5JM5fZHrac_0It8cKO1-9">
          <mxGeometry width="50" height="50" relative="1" as="geometry">
            <mxPoint x="470" y="240" as="sourcePoint" />
            <mxPoint x="618.75" y="239.99999999999997" as="targetPoint" />
          </mxGeometry>
        </mxCell>
        <mxCell id="cx8QfjB5eR3xIAXllwFt-7" value="User" style="text;html=1;strokeColor=none;fillColor=none;align=center;verticalAlign=middle;whiteSpace=wrap;rounded=0;" vertex="1" parent="1">
          <mxGeometry x="505" y="267" width="85" height="30" as="geometry" />
        </mxCell>
        <mxCell id="cx8QfjB5eR3xIAXllwFt-8" value="FindById(id)" style="text;html=1;align=center;verticalAlign=middle;resizable=0;points=[];autosize=1;strokeColor=none;fillColor=none;" vertex="1" parent="1">
          <mxGeometry x="500" y="216" width="90" height="30" as="geometry" />
        </mxCell>
        <mxCell id="cx8QfjB5eR3xIAXllwFt-9" value="" style="html=1;verticalAlign=bottom;endArrow=open;dashed=1;endSize=8;edgeStyle=elbowEdgeStyle;elbow=vertical;curved=0;rounded=0;" edge="1" parent="1">
          <mxGeometry x="0.0051" relative="1" as="geometry">
            <mxPoint x="467" y="292" as="targetPoint" />
            <Array as="points">
              <mxPoint x="440" y="291.71000000000004" />
            </Array>
            <mxPoint x="619.5" y="291.71000000000004" as="sourcePoint" />
            <mxPoint as="offset" />
          </mxGeometry>
        </mxCell>
        <mxCell id="cx8QfjB5eR3xIAXllwFt-10" value="&lt;font style=&quot;font-size: 11px;&quot;&gt;condition&lt;/font&gt;" style="shape=umlFrame;whiteSpace=wrap;html=1;pointerEvents=0;direction=east;" vertex="1" parent="1">
          <mxGeometry x="270" y="330" width="270" height="210" as="geometry" />
        </mxCell>
        <mxCell id="cx8QfjB5eR3xIAXllwFt-11" value="[ user is null ]" style="text;html=1;align=center;verticalAlign=middle;resizable=0;points=[];autosize=1;strokeColor=none;fillColor=default;fontSize=10;" vertex="1" parent="1">
          <mxGeometry x="420" y="340" width="80" height="30" as="geometry" />
        </mxCell>
        <mxCell id="cx8QfjB5eR3xIAXllwFt-12" value="" style="html=1;verticalAlign=bottom;endArrow=open;dashed=1;endSize=8;edgeStyle=elbowEdgeStyle;elbow=vertical;curved=0;rounded=0;strokeColor=default;" edge="1" parent="1" source="U5JM5fZHrac_0It8cKO1-9">
          <mxGeometry x="0.0051" relative="1" as="geometry">
            <mxPoint x="304.5" y="390" as="targetPoint" />
            <Array as="points" />
            <mxPoint x="450" y="390" as="sourcePoint" />
            <mxPoint as="offset" />
          </mxGeometry>
        </mxCell>
        <mxCell id="cx8QfjB5eR3xIAXllwFt-13" value="[else]" style="text;html=1;align=center;verticalAlign=middle;resizable=0;points=[];autosize=1;strokeColor=none;fillColor=default;fontSize=10;imageWidth=24;arcSize=12;strokeOpacity=100;resizeHeight=0;" vertex="1" parent="1">
          <mxGeometry x="435.5" y="440" width="50" height="30" as="geometry" />
        </mxCell>
        <mxCell id="cx8QfjB5eR3xIAXllwFt-15" value="" style="endArrow=none;dashed=1;html=1;rounded=0;" edge="1" parent="1">
          <mxGeometry width="50" height="50" relative="1" as="geometry">
            <mxPoint x="240" y="432" as="sourcePoint" />
            <mxPoint x="580" y="432" as="targetPoint" />
          </mxGeometry>
        </mxCell>
        <mxCell id="cx8QfjB5eR3xIAXllwFt-16" value="" style="html=1;verticalAlign=bottom;endArrow=open;dashed=1;endSize=8;edgeStyle=elbowEdgeStyle;elbow=vertical;curved=0;rounded=0;strokeColor=default;" edge="1" parent="1" source="U5JM5fZHrac_0It8cKO1-9">
          <mxGeometry x="0.0051" relative="1" as="geometry">
            <mxPoint x="304.5" y="490" as="targetPoint" />
            <Array as="points" />
            <mxPoint x="725.5" y="490" as="sourcePoint" />
            <mxPoint as="offset" />
          </mxGeometry>
        </mxCell>
        <mxCell id="cx8QfjB5eR3xIAXllwFt-14" value="Result.Fail(message)" style="text;html=1;align=center;verticalAlign=middle;resizable=0;points=[];autosize=1;strokeColor=none;fillColor=default;fontSize=9;" vertex="1" parent="1">
          <mxGeometry x="330" y="380" width="110" height="20" as="geometry" />
        </mxCell>
        <mxCell id="cx8QfjB5eR3xIAXllwFt-17" value="Result.Ok(user)" style="text;html=1;align=center;verticalAlign=middle;resizable=0;points=[];autosize=1;strokeColor=none;fillColor=default;fontSize=9;" vertex="1" parent="1">
          <mxGeometry x="335" y="480" width="90" height="20" as="geometry" />
        </mxCell>
      </root>
    </mxGraphModel>
  </diagram>
</mxfile>
